<svg xmlns="http://www.w3.org/2000/svg" id="export" class="canvas" preserveAspectRatio="xMidYMid meet" style="" width="479" height="292"><rect id="background" fill="#fff" pointer-events="all" width="479" height="292"/><g id="origin" transform="translate(13.253564453125001, 13.253564453125001) scale(1)"><g id="clusters" class="clusters"/><g id="edge-paths" class="edge-paths" style="pointer-events: none;"><defs><marker id="arrowhead" viewBox="0 0 10 10" refX="9" refY="5" markerUnits="strokeWidth" markerWidth="8" markerHeight="6" orient="auto" style="fill: rgb(0, 0, 0);"><path d="M 0 0 L 10 5 L 0 10 L 4 5 z" style="stroke-width: 1;"/></marker><marker id="arrowhead-select" viewBox="0 0 10 10" refX="9" refY="5" markerUnits="strokeWidth" markerWidth="8" markerHeight="6" orient="auto" style="fill: rgba(220, 0, 0, 0.9);"><path d="M 0 0 L 10 5 L 0 10 L 4 5 z" style="stroke-width: 1;"/></marker><marker id="arrowhead-hover" viewBox="0 0 10 10" refX="9" refY="5" markerUnits="strokeWidth" markerWidth="8" markerHeight="6" orient="auto" style="fill: rgba(220, 0, 0, 0.9);"><path d="M 0 0 L 10 5 L 0 10 L 4 5 z" style="stroke-width: 1;"/></marker></defs><path id="edge-input_layer[0][0]" class="edge-path" d="M188.453125,14.7302636545216L165.16536458333334,17.446931951684665C141.87760416666666,20.163600248847732,95.30208333333333,25.596936843173864,72.01432291666667,29.9802718070036C48.7265625,34.363606770833336,48.7265625,37.696940104166664,48.7265625,41.0302734375C48.7265625,44.363606770833336,48.7265625,47.696940104166664,48.7265625,51.0302734375C48.7265625,54.363606770833336,48.7265625,57.696940104166664,48.7265625,59.363606770833336L48.7265625,61.0302734375" style="stroke: rgb(0, 0, 0); stroke-width: 1px; fill: none; marker-end: url(&quot;#arrowhead&quot;);"/><path id="edge-input_layer[0][0]" class="edge-path" d="M194.5534156328097,21.0302734375L189.7932109440081,22.696940104166668C185.03300625520646,24.363606770833332,175.51259687760322,27.696940104166668,170.75239218880162,31.0302734375C165.9921875,34.363606770833336,165.9921875,37.696940104166664,165.9921875,41.0302734375C165.9921875,44.363606770833336,165.9921875,47.696940104166664,165.9921875,51.0302734375C165.9921875,54.363606770833336,165.9921875,57.696940104166664,165.9921875,59.363606770833336L165.9921875,61.0302734375" style="stroke: rgb(0, 0, 0); stroke-width: 1px; fill: none; marker-end: url(&quot;#arrowhead&quot;);"/><path id="edge-input_layer[0][0]" class="edge-path" d="M254.6184593671903,21.0302734375L259.3786640559919,22.696940104166668C264.13886874479357,24.363606770833332,273.65927812239676,27.696940104166668,278.4194828111984,31.0302734375C283.1796875,34.363606770833336,283.1796875,37.696940104166664,283.1796875,41.0302734375C283.1796875,44.363606770833336,283.1796875,47.696940104166664,283.1796875,51.0302734375C283.1796875,54.363606770833336,283.1796875,57.696940104166664,283.1796875,59.363606770833336L283.1796875,61.0302734375" style="stroke: rgb(0, 0, 0); stroke-width: 1px; fill: none; marker-end: url(&quot;#arrowhead&quot;);"/><path id="edge-input_layer[0][0]" class="edge-path" d="M260.71875,14.699222238184614L284.2239583333333,17.42106410473718C307.7291666666667,20.142905971289743,354.7395833333333,25.58658970439487,378.2447916666667,29.9750982376141C401.75,34.363606770833336,401.75,37.696940104166664,401.75,41.0302734375C401.75,44.363606770833336,401.75,47.696940104166664,401.75,51.0302734375C401.75,54.363606770833336,401.75,57.696940104166664,401.75,59.363606770833336L401.75,61.0302734375" style="stroke: rgb(0, 0, 0); stroke-width: 1px; fill: none; marker-end: url(&quot;#arrowhead&quot;);"/><path id="edge-functional_2[0][0]" class="edge-path" d="M28.23875762195122,82.0302734375L24.986725101626018,83.69694010416667C21.734692581300816,85.36360677083333,15.230627540650408,88.69694010416667,16.047901322772894,92.03369140625C16.865175104895382,95.37044270833333,25.00378770979076,98.71061197916667,29.073094012238453,100.38069661458333L33.14240031468614,102.05078125" style="stroke: rgb(0, 0, 0); stroke-width: 1px; fill: none; marker-end: url(&quot;#arrowhead&quot;);"/><path id="edge-functional_2[0][0]" class="edge-path" d="M97.453125,76.88593976208584L120.41731770833333,79.40999537465487C143.38151041666666,81.9340509872239,189.30989583333334,86.98216221236196,233.66015625,92.31018019268504C278.0104166666667,97.63819817300812,320.7825520833333,103.24612290851626,342.1686197916667,106.05008527627031L363.5546875,108.85404764402439" style="stroke: rgb(0, 0, 0); stroke-width: 1px; fill: none; marker-end: url(&quot;#arrowhead&quot;);"/><path id="edge-functional_5[0][0]" class="edge-path" d="M120.59489329268293,82.0302734375L113.38897357723577,83.69694010416667C106.18305386178861,85.36360677083333,91.7712144308943,88.69694010416667,83.04884228867563,92.03369140625C74.32647014645696,95.37044270833333,71.29356529291391,98.71061197916667,69.77711286614239,100.38069661458333L68.26066043937087,102.05078125" style="stroke: rgb(0, 0, 0); stroke-width: 1px; fill: none; marker-end: url(&quot;#arrowhead&quot;);"/><path id="edge-functional_5[0][0]" class="edge-path" d="M214.53125,78.74711906177401L229.42122395833334,80.96097812439501C244.31119791666666,83.17483718701601,274.0911458333333,87.602555312258,298.9283854166667,92.13918955132614C323.765625,96.67582379039429,343.66015625,101.32137414328855,353.607421875,103.64414931973569L363.5546875,105.96692449618283" style="stroke: rgb(0, 0, 0); stroke-width: 1px; fill: none; marker-end: url(&quot;#arrowhead&quot;);"/><path id="edge-functional_8[0][0]" class="edge-path" d="M234.53125,78.79776560943282L219.76822916666666,81.00318358077735C205.00520833333334,83.20860155212188,175.47916666666666,87.61943749481094,152.89713541666666,91.66431881014803C130.31510416666666,95.70920012548515,114.67708333333333,99.3881268134703,106.85807291666667,101.22759015746287L99.0390625,103.06705350145543" style="stroke: rgb(0, 0, 0); stroke-width: 1px; fill: none; marker-end: url(&quot;#arrowhead&quot;);"/><path id="edge-functional_8[0][0]" class="edge-path" d="M328.9111089939024,82.0302734375L336.1700647865853,83.69694010416667C343.4290205792683,85.36360677083333,357.9469321646341,88.69694010416667,366.7722199105524,92.0302734375C375.59750765647055,95.36360677083333,378.73017156294117,98.69694010416667,380.2965035161765,100.36360677083333L381.8628354694118,102.0302734375" style="stroke: rgb(0, 0, 0); stroke-width: 1px; fill: none; marker-end: url(&quot;#arrowhead&quot;);"/><path id="edge-functional_11[0][0]" class="edge-path" d="M351.828125,77.01731974407423L329.0631510416667,79.51947869297852C306.2981770833333,82.02163764188282,260.7682291666667,87.02595553969142,218.63671875,92.06729280615728C176.50520833333334,97.10863007262314,137.77213541666666,102.1869867077463,118.40559895833333,104.72616502530786L99.0390625,107.26534334286944" style="stroke: rgb(0, 0, 0); stroke-width: 1px; fill: none; marker-end: url(&quot;#arrowhead&quot;);"/><path id="edge-functional_11[0][0]" class="edge-path" d="M422.2378048780488,82.0302734375L425.489837398374,83.69694010416667C428.7418699186992,85.36360677083333,435.2459349593496,88.69694010416667,434.4369893550218,92.0302734375C433.6280437506941,95.36360677083333,425.50608750138804,98.69694010416667,421.44510937673505,100.36360677083333L417.38413125208206,102.0302734375" style="stroke: rgb(0, 0, 0); stroke-width: 1px; fill: none; marker-end: url(&quot;#arrowhead&quot;);"/><path id="edge-concatenate_72[0][0]" class="edge-path" d="M58.7265625,123.05078125L58.7265625,124.72086588541667C58.7265625,126.39095052083333,58.7265625,129.73111979166666,79.65104166666667,133.9874424550312C100.57552083333333,138.24376511839574,142.42447916666666,143.41624117429149,163.34895833333334,146.00247920223936L184.2734375,148.58871723018723" style="stroke: rgb(0, 0, 0); stroke-width: 1px; fill: none; marker-end: url(&quot;#arrowhead&quot;);"/><path id="edge-average[0][0]" class="edge-path" d="M391.75,123.0712890625L391.75,124.73795572916667C391.75,126.40462239583333,391.75,129.73795572916666,370.6080729166667,133.9973417801707C349.4661458333333,138.25672783117474,307.1822916666667,143.44216659984946,286.0403645833333,146.03488598418684L264.8984375,148.6276053685242" style="stroke: rgb(0, 0, 0); stroke-width: 1px; fill: none; marker-end: url(&quot;#arrowhead&quot;);"/><path id="edge-concatenate_73[0][0]" class="edge-path" d="M224.5859375,164.0712890625L224.5859375,165.73795572916666C224.5859375,167.40462239583334,224.5859375,170.73795572916666,224.5859375,174.0712890625C224.5859375,177.40462239583334,224.5859375,180.73795572916666,224.5859375,182.40462239583334L224.5859375,184.0712890625" style="stroke: rgb(0, 0, 0); stroke-width: 1px; fill: none; marker-end: url(&quot;#arrowhead&quot;);"/><path id="edge-dense_288[0][0]" class="edge-path" d="M224.5859375,224.0712890625L224.5859375,225.73795572916666C224.5859375,227.40462239583334,224.5859375,230.73795572916666,224.5859375,234.0712890625C224.5859375,237.40462239583334,224.5859375,240.73795572916666,224.5859375,242.40462239583334L224.5859375,244.0712890625" style="stroke: rgb(0, 0, 0); stroke-width: 1px; fill: none; marker-end: url(&quot;#arrowhead&quot;);"/></g><g id="edge-labels" class="edge-labels"/><g id="nodes" class="nodes"><g id="input-name-input_layer" class="node graph-input" transform="translate(188.453125,0)" style=""><g class="node-item graph-item-input" transform="translate(0,0)"><path d="M5,0h62.265625a5,5 0 0 1 5,5v11.0302734375a5,5 0 0 1 -5,5h-62.265625a5,5 0 0 1 -5,-5v-11.0302734375a5,5 0 0 1 5,-5z" style="stroke: rgb(0, 0, 0); fill: rgb(238, 238, 238); stroke-width: 0;"/><text x="6" y="15" style="font-family: -apple-system, BlinkMacSystemFont, &quot;Segoe WPC&quot;, &quot;Segoe UI&quot;, Ubuntu, &quot;Droid Sans&quot;, sans-serif, &quot;PingFang SC&quot;; font-size: 11px; text-rendering: geometricprecision; user-select: none;">input_layer</text><title>float32</title></g><path class="node node-border" d="M5,0h62.265625a5,5 0 0 1 5,5v11.0302734375a5,5 0 0 1 -5,5h-62.265625a5,5 0 0 1 -5,-5v-11.0302734375a5,5 0 0 1 5,-5z" style="stroke: rgb(51, 51, 51); fill: none; stroke-width: 1px;"/></g><g id="node-name-functional_2" class="node graph-node" transform="translate(0,61.0302734375)" style=""><g class="node-item node-item-type" transform="translate(0,0)"><path d="M5,0h74.40625a0,0 0 0 1 0,0v21a0,0 0 0 1 0,0h-74.40625a5,5 0 0 1 -5,-5v-11a5,5 0 0 1 5,-5z" style="stroke: rgb(0, 0, 0); fill: rgb(0, 0, 0); stroke-width: 0;"/><text x="6" y="15" style="font-family: -apple-system, BlinkMacSystemFont, &quot;Segoe WPC&quot;, &quot;Segoe UI&quot;, Ubuntu, &quot;Droid Sans&quot;, sans-serif, &quot;PingFang SC&quot;; font-size: 11px; text-rendering: geometricprecision; user-select: none; fill: rgb(255, 255, 255);">functional_2</text><title>functional_2</title></g><g class="node-item node-item-type" transform="translate(79.40625,0)"><path d="M0,0h13.046875a5,5 0 0 1 5,5v11a5,5 0 0 1 -5,5h-13.046875a0,0 0 0 1 0,0v-21a0,0 0 0 1 0,0z" style="stroke: rgb(0, 0, 0); fill: rgb(0, 0, 0); stroke-width: 0;"/><text x="6" y="15" style="font-family: -apple-system, BlinkMacSystemFont, &quot;Segoe WPC&quot;, &quot;Segoe UI&quot;, Ubuntu, &quot;Droid Sans&quot;, sans-serif, &quot;PingFang SC&quot;; font-size: 11px; text-rendering: geometricprecision; user-select: none; fill: rgb(255, 255, 255);">ƒ</text><title>Show Function Definition</title></g><line class="node" x1="79.40625" x2="79.40625" y1="0" y2="21" style="stroke: rgb(51, 51, 51); fill: none; stroke-width: 1px;"/><path class="node node-border" d="M5,0h87.453125a5,5 0 0 1 5,5v11a5,5 0 0 1 -5,5h-87.453125a5,5 0 0 1 -5,-5v-11a5,5 0 0 1 5,-5z" style="stroke: rgb(51, 51, 51); fill: none; stroke-width: 1px;"/></g><g id="node-name-functional_5" class="node graph-node" transform="translate(117.453125,61.0302734375)" style=""><g class="node-item node-item-type" transform="translate(0,0)"><path d="M5,0h74.03125a0,0 0 0 1 0,0v21a0,0 0 0 1 0,0h-74.03125a5,5 0 0 1 -5,-5v-11a5,5 0 0 1 5,-5z" style="stroke: rgb(0, 0, 0); fill: rgb(0, 0, 0); stroke-width: 0;"/><text x="6" y="15" style="font-family: -apple-system, BlinkMacSystemFont, &quot;Segoe WPC&quot;, &quot;Segoe UI&quot;, Ubuntu, &quot;Droid Sans&quot;, sans-serif, &quot;PingFang SC&quot;; font-size: 11px; text-rendering: geometricprecision; user-select: none; fill: rgb(255, 255, 255);">functional_5</text><title>functional_5</title></g><g class="node-item node-item-type" transform="translate(79.03125,0)"><path d="M0,0h13.046875a5,5 0 0 1 5,5v11a5,5 0 0 1 -5,5h-13.046875a0,0 0 0 1 0,0v-21a0,0 0 0 1 0,0z" style="stroke: rgb(0, 0, 0); fill: rgb(0, 0, 0); stroke-width: 0;"/><text x="6" y="15" style="font-family: -apple-system, BlinkMacSystemFont, &quot;Segoe WPC&quot;, &quot;Segoe UI&quot;, Ubuntu, &quot;Droid Sans&quot;, sans-serif, &quot;PingFang SC&quot;; font-size: 11px; text-rendering: geometricprecision; user-select: none; fill: rgb(255, 255, 255);">ƒ</text><title>Show Function Definition</title></g><line class="node" x1="79.03125" x2="79.03125" y1="0" y2="21" style="stroke: rgb(51, 51, 51); fill: none; stroke-width: 1px;"/><path class="node node-border" d="M5,0h87.078125a5,5 0 0 1 5,5v11a5,5 0 0 1 -5,5h-87.078125a5,5 0 0 1 -5,-5v-11a5,5 0 0 1 5,-5z" style="stroke: rgb(51, 51, 51); fill: none; stroke-width: 1px;"/></g><g id="node-name-functional_8" class="node graph-node" transform="translate(234.53125,61.0302734375)" style=""><g class="node-item node-item-type" transform="translate(0,0)"><path d="M5,0h74.25a0,0 0 0 1 0,0v21a0,0 0 0 1 0,0h-74.25a5,5 0 0 1 -5,-5v-11a5,5 0 0 1 5,-5z" style="stroke: rgb(0, 0, 0); fill: rgb(0, 0, 0); stroke-width: 0;"/><text x="6" y="15" style="font-family: -apple-system, BlinkMacSystemFont, &quot;Segoe WPC&quot;, &quot;Segoe UI&quot;, Ubuntu, &quot;Droid Sans&quot;, sans-serif, &quot;PingFang SC&quot;; font-size: 11px; text-rendering: geometricprecision; user-select: none; fill: rgb(255, 255, 255);">functional_8</text><title>functional_8</title></g><g class="node-item node-item-type" transform="translate(79.25,0)"><path d="M0,0h13.046875a5,5 0 0 1 5,5v11a5,5 0 0 1 -5,5h-13.046875a0,0 0 0 1 0,0v-21a0,0 0 0 1 0,0z" style="stroke: rgb(0, 0, 0); fill: rgb(0, 0, 0); stroke-width: 0;"/><text x="6" y="15" style="font-family: -apple-system, BlinkMacSystemFont, &quot;Segoe WPC&quot;, &quot;Segoe UI&quot;, Ubuntu, &quot;Droid Sans&quot;, sans-serif, &quot;PingFang SC&quot;; font-size: 11px; text-rendering: geometricprecision; user-select: none; fill: rgb(255, 255, 255);">ƒ</text><title>Show Function Definition</title></g><line class="node" x1="79.25" x2="79.25" y1="0" y2="21" style="stroke: rgb(51, 51, 51); fill: none; stroke-width: 1px;"/><path class="node node-border" d="M5,0h87.296875a5,5 0 0 1 5,5v11a5,5 0 0 1 -5,5h-87.296875a5,5 0 0 1 -5,-5v-11a5,5 0 0 1 5,-5z" style="stroke: rgb(51, 51, 51); fill: none; stroke-width: 1px;"/></g><g id="node-name-functional_11" class="node graph-node" transform="translate(351.828125,61.0302734375)" style=""><g class="node-item node-item-type" transform="translate(0,0)"><path d="M5,0h76.796875a0,0 0 0 1 0,0v21a0,0 0 0 1 0,0h-76.796875a5,5 0 0 1 -5,-5v-11a5,5 0 0 1 5,-5z" style="stroke: rgb(0, 0, 0); fill: rgb(0, 0, 0); stroke-width: 0;"/><text x="6" y="15" style="font-family: -apple-system, BlinkMacSystemFont, &quot;Segoe WPC&quot;, &quot;Segoe UI&quot;, Ubuntu, &quot;Droid Sans&quot;, sans-serif, &quot;PingFang SC&quot;; font-size: 11px; text-rendering: geometricprecision; user-select: none; fill: rgb(255, 255, 255);">functional_11</text><title>functional_11</title></g><g class="node-item node-item-type" transform="translate(81.796875,0)"><path d="M0,0h13.046875a5,5 0 0 1 5,5v11a5,5 0 0 1 -5,5h-13.046875a0,0 0 0 1 0,0v-21a0,0 0 0 1 0,0z" style="stroke: rgb(0, 0, 0); fill: rgb(0, 0, 0); stroke-width: 0;"/><text x="6" y="15" style="font-family: -apple-system, BlinkMacSystemFont, &quot;Segoe WPC&quot;, &quot;Segoe UI&quot;, Ubuntu, &quot;Droid Sans&quot;, sans-serif, &quot;PingFang SC&quot;; font-size: 11px; text-rendering: geometricprecision; user-select: none; fill: rgb(255, 255, 255);">ƒ</text><title>Show Function Definition</title></g><line class="node" x1="81.796875" x2="81.796875" y1="0" y2="21" style="stroke: rgb(51, 51, 51); fill: none; stroke-width: 1px;"/><path class="node node-border" d="M5,0h89.84375a5,5 0 0 1 5,5v11a5,5 0 0 1 -5,5h-89.84375a5,5 0 0 1 -5,-5v-11a5,5 0 0 1 5,-5z" style="stroke: rgb(51, 51, 51); fill: none; stroke-width: 1px;"/></g><g id="node-name-concatenate_72" class="node graph-node" transform="translate(18.4140625,102.05078125)" style=""><g class="node-item node-item-type node-item-type-tensor" transform="translate(0,0)"><path d="M5,0h70.625a5,5 0 0 1 5,5v11a5,5 0 0 1 -5,5h-70.625a5,5 0 0 1 -5,-5v-11a5,5 0 0 1 5,-5z" style="stroke: rgb(0, 0, 0); fill: rgb(89, 66, 59); stroke-width: 0;"/><text x="6" y="15" style="font-family: -apple-system, BlinkMacSystemFont, &quot;Segoe WPC&quot;, &quot;Segoe UI&quot;, Ubuntu, &quot;Droid Sans&quot;, sans-serif, &quot;PingFang SC&quot;; font-size: 11px; text-rendering: geometricprecision; user-select: none; fill: rgb(255, 255, 255);">Concatenate</text><title>concatenate_72</title></g><path class="node node-border" d="M5,0h70.625a5,5 0 0 1 5,5v11a5,5 0 0 1 -5,5h-70.625a5,5 0 0 1 -5,-5v-11a5,5 0 0 1 5,-5z" style="stroke: rgb(51, 51, 51); fill: none; stroke-width: 1px;"/></g><g id="node-name-average" class="node graph-node" transform="translate(363.5546875,102.0302734375)" style=""><g class="node-item node-item-type node-item-type-tensor" transform="translate(0,0)"><path d="M5,0h46.390625a5,5 0 0 1 5,5v11.041015625a5,5 0 0 1 -5,5h-46.390625a5,5 0 0 1 -5,-5v-11.041015625a5,5 0 0 1 5,-5z" style="stroke: rgb(0, 0, 0); fill: rgb(89, 66, 59); stroke-width: 0;"/><text x="6" y="15" style="font-family: -apple-system, BlinkMacSystemFont, &quot;Segoe WPC&quot;, &quot;Segoe UI&quot;, Ubuntu, &quot;Droid Sans&quot;, sans-serif, &quot;PingFang SC&quot;; font-size: 11px; text-rendering: geometricprecision; user-select: none; fill: rgb(255, 255, 255);">Average</text><title>average</title></g><path class="node node-border" d="M5,0h46.390625a5,5 0 0 1 5,5v11.041015625a5,5 0 0 1 -5,5h-46.390625a5,5 0 0 1 -5,-5v-11.041015625a5,5 0 0 1 5,-5z" style="stroke: rgb(51, 51, 51); fill: none; stroke-width: 1px;"/></g><g id="node-name-concatenate_73" class="node graph-node" transform="translate(184.2734375,143.0712890625)" style=""><g class="node-item node-item-type node-item-type-tensor" transform="translate(0,0)"><path d="M5,0h70.625a5,5 0 0 1 5,5v11a5,5 0 0 1 -5,5h-70.625a5,5 0 0 1 -5,-5v-11a5,5 0 0 1 5,-5z" style="stroke: rgb(0, 0, 0); fill: rgb(89, 66, 59); stroke-width: 0;"/><text x="6" y="15" style="font-family: -apple-system, BlinkMacSystemFont, &quot;Segoe WPC&quot;, &quot;Segoe UI&quot;, Ubuntu, &quot;Droid Sans&quot;, sans-serif, &quot;PingFang SC&quot;; font-size: 11px; text-rendering: geometricprecision; user-select: none; fill: rgb(255, 255, 255);">Concatenate</text><title>concatenate_73</title></g><path class="node node-border" d="M5,0h70.625a5,5 0 0 1 5,5v11a5,5 0 0 1 -5,5h-70.625a5,5 0 0 1 -5,-5v-11a5,5 0 0 1 5,-5z" style="stroke: rgb(51, 51, 51); fill: none; stroke-width: 1px;"/></g><g id="node-name-dense_288" class="node graph-node" transform="translate(187.015625,184.0712890625)" style=""><g class="node-item node-item-type node-item-type-layer" transform="translate(0,0)"><path d="M5,0h65.140625a5,5 0 0 1 5,5v16a0,0 0 0 1 0,0h-75.140625a0,0 0 0 1 0,0v-16a5,5 0 0 1 5,-5z" style="stroke: rgb(0, 0, 0); fill: rgb(51, 85, 136); stroke-width: 0;"/><text x="6" y="15" style="font-family: -apple-system, BlinkMacSystemFont, &quot;Segoe WPC&quot;, &quot;Segoe UI&quot;, Ubuntu, &quot;Droid Sans&quot;, sans-serif, &quot;PingFang SC&quot;; font-size: 11px; text-rendering: geometricprecision; user-select: none; fill: rgb(255, 255, 255);">Dense</text><title>dense_288</title></g><g class="node-argument-list" transform="translate(0,21)"><path d="M0,0h75.140625a0,0 0 0 1 0,0v14a5,5 0 0 1 -5,5h-65.140625a5,5 0 0 1 -5,-5v-14a0,0 0 0 1 0,0z" style="stroke: rgb(0, 0, 0); fill: rgb(255, 255, 255); stroke-width: 0;"/><g class="node-argument"><rect rx="3" ry="3" x="3" y="3" width="69.140625" height="13" style="fill: transparent;"/><text xml:space="preserve" x="6" y="13" style="font-family: -apple-system, BlinkMacSystemFont, &quot;Segoe WPC&quot;, &quot;Segoe UI&quot;, Ubuntu, &quot;Droid Sans&quot;, sans-serif, &quot;PingFang SC&quot;; font-size: 9px; font-weight: normal; text-rendering: geometricprecision; user-select: none;"><title>float32[5,1]</title><tspan style="font-weight: bold;">kernel</tspan><tspan>〈5×1〉</tspan></text></g><line class="node" x1="0" x2="75.140625" y1="0" y2="0" style="stroke: rgb(51, 51, 51); fill: none; stroke-width: 1px;"/></g><path class="node node-border" d="M5,0h65.140625a5,5 0 0 1 5,5v30a5,5 0 0 1 -5,5h-65.140625a5,5 0 0 1 -5,-5v-30a5,5 0 0 1 5,-5z" style="stroke: rgb(51, 51, 51); fill: none; stroke-width: 1px;"/></g><g class="node" transform="translate(188.09375,244.0712890625)" style=""><g class="node-item graph-item-output" transform="translate(0,0)"><path d="M5,0h62.984375a5,5 0 0 1 5,5v11a5,5 0 0 1 -5,5h-62.984375a5,5 0 0 1 -5,-5v-11a5,5 0 0 1 5,-5z" style="stroke: rgb(0, 0, 0); fill: rgb(238, 238, 238); stroke-width: 0;"/><text x="6" y="15" style="font-family: -apple-system, BlinkMacSystemFont, &quot;Segoe WPC&quot;, &quot;Segoe UI&quot;, Ubuntu, &quot;Droid Sans&quot;, sans-serif, &quot;PingFang SC&quot;; font-size: 11px; text-rendering: geometricprecision; user-select: none;">dense_288</text></g><path class="node node-border" d="M5,0h62.984375a5,5 0 0 1 5,5v11a5,5 0 0 1 -5,5h-62.984375a5,5 0 0 1 -5,-5v-11a5,5 0 0 1 5,-5z" style="stroke: rgb(51, 51, 51); fill: none; stroke-width: 1px;"/></g></g></g></svg>